<?xml version="1.0" standalone="no"?>
<!DOCTYPE svg PUBLIC "-//W3C//DTD SVG 20010904//EN"
 "http://www.w3.org/TR/2001/REC-SVG-20010904/DTD/svg10.dtd">
<svg version="1.0" xmlns="http://www.w3.org/2000/svg"
 width="317.000000pt" height="317.000000pt" viewBox="0 0 317.000000 317.000000"
 preserveAspectRatio="xMidYMid meet">
<metadata>
Created by potrace 1.11, written by Peter Selinger 2001-2013
</metadata>
<g transform="translate(0.000000,317.000000) scale(0.100000,-0.100000)"
fill="#000000" stroke="none">
<path d="M1718 3153 c6 -2 18 -2 25 0 6 3 1 5 -13 5 -14 0 -19 -2 -12 -5z"/>
<path d="M1621 3106 c-18 -18 -36 -51 -41 -71 -7 -33 -6 -40 13 -56 12 -10 29
-18 38 -19 14 0 12 -10 -13 -61 -26 -53 -30 -70 -26 -125 2 -35 7 -66 11 -70
5 -6 31 2 112 35 5 2 -18 -22 -51 -55 -34 -32 -68 -72 -77 -89 l-15 -30 -7 30
c-3 17 -10 37 -16 45 -5 8 -13 25 -18 37 -6 11 -15 24 -20 28 -20 12 -12 26 8
15 11 -5 21 -10 23 -10 2 0 4 34 4 75 l0 75 -43 17 c-58 24 -60 53 -3 53 22 0
40 2 40 5 0 23 -53 78 -93 96 -44 21 -53 22 -103 11 -62 -13 -164 -56 -176
-75 -9 -14 -10 -89 -2 -111 9 -24 28 -19 47 14 12 20 28 31 53 36 19 3 43 17
53 30 24 30 31 30 31 -1 0 -21 -11 -31 -69 -59 -76 -39 -92 -65 -60 -95 20
-18 19 -19 -25 -25 -24 -4 -56 -16 -69 -27 -14 -10 -29 -19 -34 -19 -4 0 -20
-20 -35 -44 -32 -50 -35 -91 -12 -159 21 -62 35 -72 76 -58 28 10 22 1 -45
-61 -97 -92 -132 -152 -124 -219 3 -27 16 -62 28 -78 l22 -30 41 20 41 21 -38
-32 c-21 -18 -47 -49 -57 -71 -47 -91 -31 -242 32 -294 60 -51 85 -58 172 -50
132 12 199 13 221 5 24 -8 73 10 96 37 20 22 39 77 39 112 0 40 -20 102 -31
96 -5 -4 -9 1 -9 10 0 45 -85 79 -182 73 -40 -3 -82 -8 -93 -12 -11 -4 -6 1
10 12 32 22 198 55 203 41 9 -23 70 10 76 41 2 8 6 23 11 33 4 10 4 50 -1 90
-12 107 -11 221 3 248 6 13 14 32 17 42 3 9 10 17 17 17 6 0 8 -7 4 -17 -3
-10 -9 -45 -12 -79 -5 -52 -2 -68 18 -103 12 -22 26 -41 30 -41 4 0 15 -7 24
-16 12 -12 13 -19 4 -30 -9 -11 -9 -17 0 -28 9 -11 9 -15 0 -18 -8 -3 -6 -10
6 -21 25 -26 13 -31 -15 -7 -17 15 -27 17 -34 10 -8 -8 -6 -14 6 -21 10 -6 15
-16 11 -25 -5 -13 -7 -13 -14 -2 -6 9 -9 9 -9 1 0 -7 8 -17 18 -22 11 -7 12
-10 3 -11 -9 0 -11 -8 -7 -26 5 -19 4 -24 -6 -19 -7 4 -6 1 2 -7 8 -7 16 -26
17 -42 3 -44 17 -51 47 -25 14 12 23 26 20 30 -2 4 4 6 14 4 10 -2 36 5 58 14
39 18 64 18 64 0 0 -5 -6 -9 -13 -9 -7 0 -23 -10 -37 -23 -14 -13 -30 -22 -36
-20 -6 2 -19 -8 -29 -23 -9 -14 -11 -23 -4 -19 8 6 10 4 5 -4 -5 -7 -14 -10
-21 -7 -8 3 -19 -3 -27 -11 -11 -14 -11 -16 2 -11 11 4 16 -1 18 -15 1 -17 -1
-18 -8 -7 -7 12 -12 11 -30 -5 -15 -14 -17 -20 -8 -26 10 -6 7 -14 -10 -29
-20 -19 -23 -30 -21 -93 1 -39 9 -91 17 -116 8 -26 14 -52 15 -58 0 -7 16 -27
34 -44 39 -35 64 -34 117 4 21 15 13 1 -27 -43 -69 -77 -111 -160 -128 -252
l-12 -68 -18 51 c-26 74 -42 93 -104 129 -68 39 -72 49 -5 15 27 -14 56 -25
64 -25 17 0 26 31 26 98 0 61 -36 146 -85 198 -35 36 -129 68 -178 59 -18 -3
-69 -8 -114 -12 -104 -7 -155 10 -212 72 -61 66 -134 78 -216 37 -37 -19 -45
-27 -79 -82 l-28 -45 5 47 c2 26 2 49 0 52 -3 3 -30 -9 -60 -26 -66 -37 -133
-52 -168 -36 -20 9 -29 6 -63 -21 -45 -35 -67 -98 -56 -159 22 -120 92 -148
241 -95 l75 26 96 -21 c54 -12 127 -24 164 -28 52 -4 76 -12 106 -33 60 -44
126 -129 166 -213 43 -92 74 -120 150 -137 50 -11 59 -17 73 -46 19 -41 95
-92 149 -100 33 -6 42 -3 63 18 21 23 23 33 19 101 -2 42 -1 76 2 76 3 0 11
-15 18 -33 22 -60 52 -79 136 -85 l74 -4 58 43 c75 55 111 85 207 172 49 45
98 80 133 93 30 13 54 21 54 20 0 -2 -20 -16 -45 -32 -51 -32 -55 -41 -22 -48
158 -34 247 -31 321 10 54 30 101 86 111 133 5 23 26 53 65 90 44 42 61 67 70
100 12 45 7 134 -9 160 -10 16 -31 6 -31 -14 0 -18 -92 -69 -160 -89 -36 -10
-66 -27 -85 -47 -43 -45 -68 -52 -191 -50 -68 1 -128 -4 -155 -12 -101 -31
-218 -138 -259 -239 -13 -32 -25 -56 -27 -54 -2 2 3 30 11 61 21 80 91 182
154 225 l51 35 1 61 c0 34 5 75 11 93 10 29 9 35 -14 59 -48 50 -50 73 -17
171 32 93 34 138 8 197 -6 16 -12 34 -13 39 0 6 -10 24 -23 39 -12 16 -22 33
-22 37 0 5 -7 9 -15 9 -8 0 -15 6 -16 13 0 6 -2 39 -4 72 -1 39 -10 76 -25
105 -21 40 -24 61 -25 180 -1 74 -3 137 -5 140 -1 3 -2 9 -1 14 1 4 -10 19
-24 32 -38 36 -84 179 -67 210 6 10 12 -4 20 -46 14 -79 57 -148 97 -158 34
-9 33 -6 21 -144 -10 -101 3 -169 41 -228 l25 -38 44 24 c54 30 80 31 88 2 9
-36 7 -41 -9 -28 -20 17 -95 -4 -95 -25 0 -8 5 -15 10 -15 6 0 10 -4 10 -8 0
-5 -7 -9 -15 -9 -8 0 -15 4 -15 9 0 4 -9 8 -19 8 -23 0 -36 -43 -22 -68 10
-16 10 -16 11 0 0 9 5 20 11 24 8 5 10 -1 7 -20 -3 -15 0 -33 6 -39 14 -14 15
-15 22 -44 4 -13 10 -23 14 -23 5 0 18 -26 30 -57 24 -64 22 -95 -9 -191 -33
-100 -33 -115 -1 -150 22 -25 37 -32 65 -32 42 0 119 37 190 90 57 43 193 93
247 91 73 -2 110 86 74 174 -8 19 -20 35 -26 35 -18 0 -65 -62 -62 -82 4 -23
1 -23 -59 8 -46 23 -55 24 -100 15 -28 -6 -63 -17 -78 -25 -27 -15 -111 -103
-111 -118 0 -5 -7 -8 -15 -8 -21 0 -19 13 13 63 26 43 59 71 132 111 29 16 48
18 116 13 79 -6 82 -5 106 21 34 36 39 66 22 115 -18 51 -43 78 -97 106 -23
12 -52 36 -64 54 -17 23 -23 27 -23 14 0 -10 -5 -15 -10 -12 -6 4 -8 11 -5 16
12 18 -6 49 -27 49 -21 0 -21 0 -2 -22 12 -13 13 -18 4 -13 -13 7 -13 6 -2 -7
17 -21 25 -68 12 -68 -5 0 -10 -10 -10 -23 0 -17 12 -28 53 -46 28 -13 46 -26
39 -29 -11 -3 -136 11 -202 24 -14 3 -33 6 -42 7 -9 1 -14 5 -12 9 3 4 1 8 -4
8 -6 0 -8 9 -5 21 4 15 0 22 -16 26 -11 3 -21 9 -21 14 0 12 7 11 30 -1 14 -8
18 -6 16 6 -1 9 -7 19 -13 22 -5 4 -15 16 -20 27 -10 18 -8 20 20 22 28 2 29
2 11 -12 -25 -19 -10 -19 27 0 26 14 31 14 44 1 8 -8 15 -19 15 -25 0 -5 4
-12 9 -16 6 -3 9 4 8 16 -1 11 -9 25 -18 29 -11 6 -15 19 -13 38 3 25 -4 34
-50 66 -34 23 -64 36 -85 36 -31 0 -32 2 -26 30 9 41 -26 116 -64 138 -41 23
-41 46 -1 37 25 -5 30 -3 31 12 5 77 -26 127 -93 150 l-50 18 34 5 c40 6 41
28 6 83 -25 40 -86 67 -148 67 -27 0 -43 7 -66 31 -34 36 -84 59 -128 59 -23
0 -41 -9 -65 -34z m-262 -478 c-13 -29 -31 -66 -41 -83 l-18 -30 0 43 0 42
-42 0 c-50 0 -44 11 9 17 54 6 80 27 95 75 12 38 13 40 16 16 2 -14 -7 -50
-19 -80z m524 55 c-7 -2 -19 -2 -25 0 -7 3 -2 5 12 5 14 0 19 -2 13 -5z m37
-3 c0 -5 -4 -10 -10 -10 -5 0 -10 5 -10 10 0 6 5 10 10 10 6 0 10 -4 10 -10z
m-12 -43 c1 -15 -4 -24 -13 -24 -18 0 -18 2 -5 28 14 24 15 24 18 -4z m-146
-5 c7 -7 17 -8 29 -2 10 6 24 7 32 4 12 -4 12 -10 3 -30 -6 -13 -15 -24 -19
-24 -5 0 -6 4 -3 8 2 4 -11 6 -30 4 -26 -3 -32 -7 -24 -17 16 -19 -15 -42 -34
-26 -10 8 -21 9 -33 3 -10 -5 -31 -12 -48 -16 l-30 -7 23 16 c13 10 21 23 18
31 -6 15 15 15 26 0 4 -6 13 -4 22 3 13 11 17 11 22 -3 3 -9 10 -16 15 -16 4
0 6 6 3 14 -3 7 1 20 10 28 9 10 11 20 5 29 -6 10 -9 10 -9 2 0 -7 -4 -13 -10
-13 -5 0 -10 6 -10 14 0 16 25 15 42 -2z m-69 1 c-7 -2 -19 -2 -25 0 -7 3 -2
5 12 5 14 0 19 -2 13 -5z m177 -13 c0 -5 -4 -10 -10 -10 -5 0 -10 5 -10 10 0
6 5 10 10 10 6 0 10 -4 10 -10z m-86 -270 c-6 -49 -6 -50 25 -61 18 -7 31 -18
30 -27 0 -11 -2 -12 -6 -4 -2 6 -14 12 -24 12 -29 0 -61 -20 -56 -34 3 -7 -4
-18 -15 -25 -18 -11 -20 -11 -15 4 4 9 3 14 -3 10 -6 -3 -10 -12 -10 -19 0
-16 -58 -27 -67 -13 -6 11 17 28 29 21 4 -3 5 2 2 11 -5 11 -2 15 9 13 20 -4
59 42 54 64 -3 10 -1 18 4 18 5 0 9 7 9 15 0 15 28 65 36 65 3 0 2 -23 -2 -50z
m-416 0 c-10 -16 -9 -23 12 -45 13 -13 20 -28 17 -32 -4 -3 -7 -1 -7 5 0 20
-111 54 -160 49 -40 -5 -42 -4 -26 9 13 9 35 12 75 7 45 -4 59 -2 70 11 19 23
34 20 19 -4z m-188 -34 c0 -2 -8 -10 -17 -17 -16 -13 -17 -12 -4 4 13 16 21
21 21 13z m980 -43 c0 -14 -2 -15 -9 -4 -5 8 -14 10 -21 6 -9 -5 -11 -4 -6 3
11 18 36 14 36 -5z m59 -24 c-11 -6 -10 -9 5 -15 14 -5 15 -9 4 -15 -10 -7
-10 -9 2 -9 8 -1 4 -5 -9 -11 -15 -6 -21 -15 -17 -24 3 -8 1 -15 -4 -15 -6 0
-9 27 -9 60 2 56 3 59 22 49 15 -9 17 -13 6 -20z m-49 -10 c0 -15 -18 -19 -23
-6 -3 8 1 14 9 14 8 0 14 -4 14 -8z m-237 -18 c-3 -11 -12 -22 -20 -25 -14 -6
-11 5 10 32 13 17 16 15 10 -7z m50 -12 c4 -16 3 -18 -9 -8 -7 6 -11 15 -8 20
8 13 11 11 17 -12z m-137 2 c-4 -5 -1 -11 6 -13 10 -4 10 -10 1 -29 l-12 -24
0 28 c-1 20 -5 26 -13 21 -9 -5 -9 -2 1 9 14 18 26 23 17 8z m294 -11 c0 -19
-18 -19 -23 -1 -3 14 -1 18 9 14 8 -3 14 -9 14 -13z m-330 -12 c0 -13 -23 -5
-28 10 -2 7 2 10 12 6 9 -3 16 -11 16 -16z m-40 8 c0 -11 -19 -15 -25 -6 -3 5
1 10 9 10 9 0 16 -2 16 -4z m1 -20 c16 9 33 -7 18 -18 -10 -6 -7 -8 11 -6 27
3 73 -33 52 -40 -7 -2 -12 -11 -12 -19 0 -12 3 -13 14 -4 10 8 16 8 23 -1 22
-29 22 -35 -4 -33 -32 1 -70 44 -51 56 10 7 8 9 -5 9 -10 0 -17 -6 -16 -12 4
-32 -1 -41 -15 -29 -8 6 -20 10 -27 9 -7 -2 -18 7 -24 20 -10 18 -14 20 -18 8
-4 -10 -19 -15 -46 -14 -23 0 -38 4 -36 9 3 4 15 6 26 4 20 -4 20 -3 5 20 -15
22 -15 25 2 33 9 5 23 7 30 5 6 -3 12 0 12 6 0 7 8 7 26 1 14 -6 30 -8 35 -4z
m184 -26 c12 0 25 -7 29 -15 3 -9 12 -12 22 -8 12 4 15 1 13 -12 -6 -27 -26
-29 -32 -4 -6 23 -27 17 -27 -7 0 -9 5 -12 13 -8 9 5 9 3 -1 -7 -11 -12 -14
-12 -22 1 -5 9 -5 19 1 26 7 9 4 14 -10 19 -12 3 -21 14 -20 23 0 11 3 12 6 5
2 -7 15 -13 28 -13z m-38 -27 c5 -14 -35 -24 -43 -11 -7 11 15 29 30 25 6 -2
11 -8 13 -14z m-97 -83 c0 -5 -5 -10 -11 -10 -5 0 -7 5 -4 10 3 6 8 10 11 10
2 0 4 -4 4 -10z m110 0 c0 -5 -5 -10 -11 -10 -5 0 -7 5 -4 10 3 6 8 10 11 10
2 0 4 -4 4 -10z m10 -70 c0 -5 -5 -10 -11 -10 -5 0 -7 5 -4 10 3 6 8 10 11 10
2 0 4 -4 4 -10z m-59 -276 c-57 -26 -76 -31 -83 -22 -14 23 -2 33 46 40 27 4
51 9 54 12 3 3 17 6 31 6 19 -1 6 -10 -48 -36z"/>
<path d="M1708 2159 c-8 -6 1 -9 25 -9 20 0 37 2 37 4 0 9 -50 12 -62 5z"/>
<path d="M1313 3083 c20 -2 54 -2 75 0 20 2 3 4 -38 4 -41 0 -58 -2 -37 -4z"/>
<path d="M1888 3083 c18 -2 45 -2 60 0 15 2 0 4 -33 4 -33 0 -45 -2 -27 -4z"/>
<path d="M1995 3044 c6 -5 26 -23 45 -39 l35 -30 -25 28 c-14 16 -34 33 -45
39 -11 6 -15 6 -10 2z"/>
<path d="M1060 2960 c-18 -12 -2 -12 25 0 13 6 15 9 5 9 -8 0 -22 -4 -30 -9z"/>
<path d="M1064 2923 c-58 -31 -76 -50 -127 -135 -10 -16 -32 -32 -55 -38 -50
-16 -116 -77 -131 -123 -18 -52 -9 -66 18 -29 12 18 28 32 34 32 9 0 9 -2 0
-8 -6 -4 -18 -26 -26 -50 -14 -39 -13 -44 5 -67 23 -30 73 -34 118 -10 38 20
38 14 -1 -30 -27 -31 -37 -35 -79 -35 -43 0 -51 -4 -84 -40 -20 -22 -36 -46
-37 -53 0 -6 -3 -23 -6 -37 -9 -36 -8 -69 0 -115 l8 -40 -23 27 c-33 39 -83
49 -132 27 -50 -22 -65 -57 -72 -167 -5 -81 -4 -84 15 -79 11 3 25 -1 31 -8 7
-8 36 -19 66 -25 61 -13 74 -26 17 -17 -73 12 -123 -24 -123 -88 0 -14 -4 -25
-9 -25 -12 0 -21 36 -21 83 0 41 -9 46 -33 20 -22 -26 -30 -67 -22 -118 5 -40
11 -48 44 -65 53 -27 94 -18 225 48 105 52 113 54 170 49 34 -3 71 -8 83 -12
20 -7 21 -3 25 62 3 66 2 69 -32 107 -25 29 -29 37 -15 32 48 -19 52 -18 64
16 11 30 10 34 -9 47 -78 52 -59 257 31 323 28 21 30 26 24 63 -18 107 -17
152 6 197 32 63 66 105 106 129 32 20 34 25 27 53 -4 17 -9 53 -10 79 -1 26
-3 49 -5 51 -2 2 -32 -12 -65 -31z m-333 -809 c22 -25 22 -26 3 -16 -12 6 -24
18 -28 27 -8 21 -3 19 25 -11z"/>
<path d="M2178 2953 c7 -3 16 -2 19 1 4 3 -2 6 -13 5 -11 0 -14 -3 -6 -6z"/>
<path d="M2103 2943 c-26 -10 -13 -55 26 -98 21 -23 40 -48 43 -56 4 -11 11
-10 36 9 17 12 40 22 52 22 28 0 25 19 -10 66 -35 49 -103 75 -147 57z"/>
<path d="M2211 2947 c2 -1 15 -11 29 -22 l25 -20 -19 23 c-11 12 -24 22 -29
22 -6 0 -8 -1 -6 -3z"/>
<path d="M956 2889 c-15 -17 -26 -33 -23 -35 2 -3 16 11 31 31 33 43 29 46 -8
4z"/>
<path d="M2270 2902 c0 -5 7 -15 16 -23 8 -7 22 -26 30 -43 11 -24 12 -25 8
-6 -7 26 -54 89 -54 72z"/>
<path d="M840 2770 c-8 -5 -10 -10 -5 -10 6 0 17 5 25 10 8 5 11 10 5 10 -5 0
-17 -5 -25 -10z"/>
<path d="M2183 2732 c-19 -12 -27 -80 -12 -99 8 -9 18 -30 24 -47 8 -24 23
-38 65 -58 30 -15 60 -27 66 -28 7 0 14 -7 18 -15 3 -9 18 -15 36 -15 27 0 30
3 30 30 0 35 -36 107 -61 123 -19 12 -26 37 -10 37 16 0 81 -80 81 -100 0 -11
5 -20 10 -20 6 0 10 -8 10 -18 0 -22 28 -81 47 -100 7 -7 13 -23 13 -34 0 -16
3 -18 14 -9 11 9 12 7 9 -13 -4 -17 2 -28 18 -40 54 -37 84 -4 47 50 -27 40
-45 49 -64 33 -12 -10 -13 -8 -8 6 5 13 4 16 -4 11 -7 -4 -12 -1 -12 8 0 19
16 21 23 4 4 -10 7 -10 17 -1 11 10 10 13 -3 18 -11 5 -14 15 -10 38 7 48 -35
115 -103 163 -30 21 -68 49 -84 62 -22 17 -41 22 -86 22 -33 0 -64 -4 -71 -8z
m307 -272 c0 -5 -2 -10 -4 -10 -3 0 -8 5 -11 10 -3 6 -1 10 4 10 6 0 11 -4 11
-10z"/>
<path d="M755 2720 c-3 -6 1 -7 9 -4 18 7 21 14 7 14 -6 0 -13 -4 -16 -10z"/>
<path d="M2405 2718 c11 -6 28 -18 38 -26 9 -8 17 -11 17 -6 0 10 -52 44 -67
44 -4 0 1 -6 12 -12z"/>
<path d="M730 2685 c-7 -9 -11 -17 -9 -20 3 -2 10 5 17 15 14 24 10 26 -8 5z"/>
<path d="M2512 2625 c14 -16 28 -39 31 -50 5 -19 5 -19 6 1 0 11 -13 33 -31
50 l-33 29 27 -30z"/>
<path d="M620 2505 c-24 -24 -42 -46 -39 -48 2 -2 24 19 48 45 55 61 50 63 -9
3z"/>
<path d="M2551 2534 c0 -11 3 -14 6 -6 3 7 2 16 -1 19 -3 4 -6 -2 -5 -13z"/>
<path d="M653 2499 c-26 -18 -46 -42 -52 -62 -5 -17 -19 -57 -31 -87 -12 -30
-21 -56 -21 -57 5 -13 -1 -15 -9 -3 -8 12 -10 10 -10 -10 0 -14 -15 -40 -37
-64 -21 -21 -32 -35 -24 -31 8 5 27 22 42 40 24 27 34 31 84 33 32 1 61 5 65
7 4 3 11 26 15 52 4 26 20 66 36 89 28 41 35 76 23 108 -9 23 -34 19 -81 -15z"/>
<path d="M2571 2464 c0 -11 3 -14 6 -6 3 7 2 16 -1 19 -3 4 -6 -2 -5 -13z"/>
<path d="M548 2377 c-21 -49 -22 -57 -8 -57 6 0 10 9 10 21 0 11 5 29 11 40 6
11 9 24 7 29 -2 5 -11 -9 -20 -33z"/>
<path d="M2610 2380 c6 -11 13 -20 16 -20 2 0 0 9 -6 20 -6 11 -13 20 -16 20
-2 0 0 -9 6 -20z"/>
<path d="M2300 2335 c-1 -11 -2 -23 -2 -27 1 -3 -5 -11 -13 -18 -7 -6 -11 -19
-8 -27 4 -11 2 -14 -5 -9 -7 4 -12 2 -12 -3 0 -19 19 -12 35 13 16 24 17 24
36 5 10 -10 23 -19 28 -19 15 0 22 30 11 48 -9 16 -9 16 -10 0 0 -25 -17 -31
-23 -8 -3 12 -1 18 5 14 6 -4 5 3 -2 15 -6 12 -15 19 -20 16 -4 -3 -11 1 -13
7 -3 8 -6 4 -7 -7z"/>
<path d="M2683 2135 c0 -22 2 -30 4 -17 2 12 2 30 0 40 -3 9 -5 -1 -4 -23z"/>
<path d="M431 2094 c0 -11 3 -14 6 -6 3 7 2 16 -1 19 -3 4 -6 -2 -5 -13z"/>
<path d="M2752 1985 c0 -16 2 -22 5 -12 2 9 2 23 0 30 -3 6 -5 -1 -5 -18z"/>
<path d="M375 1939 c-11 -16 -1 -19 13 -3 7 8 8 14 3 14 -5 0 -13 -5 -16 -11z"/>
<path d="M2751 1904 c0 -20 6 -37 17 -45 15 -12 15 -12 5 1 -6 8 -13 29 -16
45 l-4 30 -2 -31z"/>
<path d="M2711 1834 c-12 -9 -57 -21 -99 -26 -81 -11 -150 -42 -227 -103 -62
-50 -85 -59 -152 -58 -61 0 -61 0 -78 -37 -9 -20 -17 -58 -18 -85 l-2 -48 60
2 c34 1 79 -5 104 -13 24 -9 66 -16 93 -16 48 0 54 3 113 59 45 42 74 60 101
65 48 9 116 48 142 81 27 34 37 96 22 139 -16 49 -31 59 -59 40z"/>
<path d="M2801 1784 c0 -11 3 -14 6 -6 3 7 2 16 -1 19 -3 4 -6 -2 -5 -13z"/>
<path d="M2802 1715 c0 -16 2 -22 5 -12 2 9 2 23 0 30 -3 6 -5 -1 -5 -18z"/>
<path d="M344 1638 l-19 -23 23 19 c21 18 27 26 19 26 -2 0 -12 -10 -23 -22z"/>
<path d="M2828 1577 c2 -35 -1 -80 -7 -102 -6 -22 -7 -45 -2 -54 7 -12 9 -10
10 9 0 14 3 59 7 101 3 42 2 84 -3 93 -6 11 -8 -5 -5 -47z"/>
<path d="M293 1455 c0 -22 2 -30 4 -17 2 12 2 30 0 40 -3 9 -5 -1 -4 -23z"/>
<path d="M2836 1387 c3 -10 9 -15 12 -12 3 3 0 11 -7 18 -10 9 -11 8 -5 -6z"/>
<path d="M2743 1347 c-52 -52 -66 -89 -58 -146 6 -41 5 -44 -10 -31 -14 11
-20 9 -48 -17 -18 -17 -50 -36 -72 -43 -45 -14 -54 -24 -56 -60 -1 -19 -3 -17
-8 10 l-6 35 -70 6 c-38 3 -101 12 -140 19 -69 13 -71 13 -110 -13 -58 -38
-162 -120 -220 -173 -67 -61 -104 -76 -190 -76 l-72 0 -32 -68 c-18 -38 -35
-85 -38 -105 -7 -46 20 -109 55 -125 26 -11 26 -12 8 -25 -25 -19 -36 -85 -20
-123 7 -17 31 -43 54 -57 52 -33 184 -58 259 -49 133 16 302 179 285 274 -4
19 -11 43 -16 54 -8 14 -7 17 4 14 7 -2 19 -18 26 -34 26 -57 28 -59 68 -56
109 8 246 122 235 195 0 4 -25 -5 -53 -20 -67 -34 -152 -38 -217 -9 -34 16
-48 18 -69 9 -15 -6 -99 -43 -187 -81 -198 -86 -229 -95 -143 -43 37 23 70 41
73 41 16 0 219 104 241 123 14 12 35 40 46 61 25 48 19 112 -13 158 -20 28
-20 30 -3 26 26 -5 64 -65 64 -103 0 -17 -7 -53 -17 -80 l-16 -48 27 -24 c36
-31 119 -32 179 -2 257 129 442 455 337 597 -13 17 -26 32 -29 32 -3 -1 -25
-20 -48 -43z m-808 -864 c54 -3 106 -1 129 6 l40 10 -21 -21 c-37 -37 -134
-42 -270 -12 -20 4 -33 13 -33 22 0 11 7 13 33 8 17 -4 73 -9 122 -13z"/>
<path d="M560 1350 c-30 -11 -83 -19 -116 -19 -55 -1 -64 -4 -79 -27 -12 -18
-15 -38 -12 -61 8 -47 54 -123 75 -124 9 0 52 -6 95 -13 l78 -13 -7 64 c-7 74
9 87 26 21 33 -133 130 -238 218 -238 53 0 72 17 78 70 8 66 12 74 28 61 11
-10 11 -22 1 -79 -12 -63 -12 -70 8 -112 12 -24 45 -67 73 -96 67 -67 104 -74
244 -48 24 4 25 4 5 -12 -11 -8 -27 -19 -35 -24 -12 -7 -12 -12 5 -31 l20 -22
-27 17 c-15 10 -54 20 -86 23 -77 7 -121 38 -198 138 l-60 80 -49 0 -48 0 -16
-47 c-9 -26 -19 -50 -23 -53 -13 -14 -20 45 -9 77 11 32 11 33 -61 100 -83 76
-103 85 -210 91 -89 5 -95 -2 -56 -59 27 -39 75 -67 143 -83 28 -7 66 -21 85
-32 19 -11 26 -17 15 -14 -11 4 -48 11 -83 16 -80 12 -116 30 -171 88 l-44 46
6 -40 c9 -58 60 -146 112 -194 53 -49 70 -51 79 -10 7 37 29 29 23 -9 -2 -15
4 -46 14 -69 22 -52 116 -116 195 -134 46 -10 56 -10 78 5 15 9 26 24 27 34 0
9 6 1 13 -18 17 -48 96 -107 163 -120 85 -18 118 3 68 42 -14 11 -25 28 -25
39 0 27 15 24 35 -7 9 -14 42 -37 73 -51 109 -48 254 -31 328 39 29 27 31 32
32 115 1 48 5 95 8 105 5 15 -1 18 -37 18 -52 0 -118 40 -171 103 -27 33 -48
47 -85 57 -98 28 -152 81 -212 212 -34 74 -80 115 -143 130 -34 7 -47 5 -83
-16 -31 -17 -42 -19 -38 -9 3 8 17 19 30 24 40 15 22 31 -67 61 -96 32 -151
34 -230 8z"/>
<path d="M332 1190 c0 -14 2 -19 5 -12 2 6 2 18 0 25 -3 6 -5 1 -5 -13z"/>
<path d="M2766 955 c-3 -9 -5 -31 -5 -48 1 -27 3 -24 9 13 8 48 6 61 -4 35z"/>
<path d="M320 951 c0 -6 4 -13 10 -16 6 -3 7 1 4 9 -7 18 -14 21 -14 7z"/>
<path d="M352 890 c0 -8 4 -26 8 -40 6 -20 8 -21 8 -5 0 11 -3 29 -8 40 -5 12
-8 14 -8 5z"/>
<path d="M2709 866 c-13 -15 -43 -41 -66 -57 -29 -20 -44 -39 -48 -61 -11 -49
-49 -119 -87 -160 -36 -39 -108 -68 -169 -68 -34 0 -42 -6 -74 -47 -19 -25
-34 -51 -32 -57 6 -20 94 -18 162 3 147 46 262 183 327 389 24 77 20 96 -13
58z"/>
<path d="M2752 825 c0 -16 2 -22 5 -12 2 9 2 23 0 30 -3 6 -5 -1 -5 -18z"/>
<path d="M372 800 c0 -14 2 -19 5 -12 2 6 2 18 0 25 -3 6 -5 1 -5 -13z"/>
<path d="M420 766 c0 -2 17 -35 39 -73 27 -48 59 -85 107 -126 84 -70 135 -94
217 -103 78 -8 89 -14 111 -61 21 -46 101 -104 169 -123 75 -20 180 -9 252 27
33 17 101 47 150 68 50 20 97 43 106 51 24 22 52 91 45 110 -6 15 -12 12 -44
-19 -70 -69 -215 -96 -337 -63 -40 10 -57 10 -85 0 -46 -16 -136 -7 -177 18
-18 11 -41 33 -50 49 -14 24 -24 29 -56 29 -103 0 -242 61 -287 127 -25 37
-160 112 -160 89z"/>
<path d="M390 731 c0 -6 4 -13 10 -16 6 -3 7 1 4 9 -7 18 -14 21 -14 7z"/>
<path d="M440 641 c5 -11 15 -23 21 -27 6 -3 3 5 -6 20 -20 30 -30 35 -15 7z"/>
<path d="M490 587 c0 -2 15 -16 33 -33 l32 -29 -29 33 c-28 30 -36 37 -36 29z"/>
<path d="M570 503 c0 -5 12 -20 28 -34 l27 -24 -25 30 c-14 17 -26 32 -27 34
-2 2 -3 0 -3 -6z"/>
<path d="M680 443 c1 -43 65 -108 175 -178 74 -47 138 -65 233 -65 96 0 98 16
4 35 -50 10 -148 72 -187 118 -19 22 -35 44 -35 48 0 9 -42 24 -105 39 -27 6
-58 13 -67 16 -13 4 -18 0 -18 -13z"/>
<path d="M2480 420 c-44 -24 -120 -48 -194 -60 -51 -8 -65 -16 -120 -67 -62
-58 -125 -96 -181 -108 -23 -5 -19 -1 21 22 54 29 160 120 152 129 -3 2 -35
-9 -72 -26 -84 -37 -146 -39 -303 -6 -105 21 -114 22 -128 6 -24 -26 -19 -84
11 -119 l25 -30 -31 10 c-17 6 -41 25 -53 41 -21 28 -25 29 -77 24 -50 -5 -53
-5 -25 7 62 25 93 50 103 84 17 55 -2 80 -37 50 -9 -8 -59 -28 -111 -46 -143
-49 -183 -102 -127 -167 22 -25 31 -28 111 -32 48 -2 85 -7 82 -9 -3 -3 -36
-11 -74 -17 -73 -12 -126 -5 -187 26 -31 16 -225 33 -225 20 0 -15 86 -52 120
-52 20 0 60 -7 90 -15 174 -48 178 -49 237 -35 43 9 67 22 104 57 l47 44 51
-25 c63 -32 130 -34 288 -7 118 21 160 41 270 128 23 18 72 45 108 59 69 25
134 70 160 111 19 28 11 28 -35 3z"/>
<path d="M640 416 c0 -2 8 -10 18 -17 15 -13 16 -12 3 4 -13 16 -21 21 -21 13z"/>
<path d="M720 317 c0 -2 15 -16 33 -33 l32 -29 -29 33 c-28 30 -36 37 -36 29z"/>
<path d="M2275 230 c-16 -11 -25 -20 -20 -20 10 0 64 39 55 40 -3 0 -18 -9
-35 -20z"/>
<path d="M837 229 c7 -7 15 -10 18 -7 3 3 -2 9 -12 12 -14 6 -15 5 -6 -5z"/>
<path d="M1638 93 c6 -2 18 -2 25 0 6 3 1 5 -13 5 -14 0 -19 -2 -12 -5z"/>
<path d="M2028 93 c7 -3 16 -2 19 1 4 3 -2 6 -13 5 -11 0 -14 -3 -6 -6z"/>
<path d="M1108 83 c7 -3 16 -2 19 1 4 3 -2 6 -13 5 -11 0 -14 -3 -6 -6z"/>
<path d="M1599 73 c-13 -16 -12 -17 4 -4 9 7 17 15 17 17 0 8 -8 3 -21 -13z"/>
<path d="M1178 73 c7 -3 16 -2 19 1 4 3 -2 6 -13 5 -11 0 -14 -3 -6 -6z"/>
<path d="M1933 73 c9 -2 25 -2 35 0 9 3 1 5 -18 5 -19 0 -27 -2 -17 -5z"/>
<path d="M1778 63 c23 -2 59 -2 80 0 20 2 1 4 -43 4 -44 0 -61 -2 -37 -4z"/>
<path d="M1328 23 c7 -3 16 -2 19 1 4 3 -2 6 -13 5 -11 0 -14 -3 -6 -6z"/>
<path d="M1508 23 c7 -3 16 -2 19 1 4 3 -2 6 -13 5 -11 0 -14 -3 -6 -6z"/>
<path d="M1373 13 c9 -2 23 -2 30 0 6 3 -1 5 -18 5 -16 0 -22 -2 -12 -5z"/>
<path d="M1468 13 c7 -3 16 -2 19 1 4 3 -2 6 -13 5 -11 0 -14 -3 -6 -6z"/>
</g>
</svg>
